<svg width="22" height="22" viewBox="0 0 22 22" fill="none" xmlns="http://www.w3.org/2000/svg">
    <path d="M6.173 10.016a.34.34 0 0 1 0-.68h7.822a.34.34 0 0 1 0 .68H6.173zM6.228 12.951a.34.34 0 1 1 0-.68h4.754a.34.34 0 1 1 0 .68H6.228z" fill="#000"/>
    <path d="M5.521 19.996A2.526 2.526 0 0 1 3 17.463V4.532A2.527 2.527 0 0 1 5.521 2h8.991a2.527 2.527 0 0 1 2.521 2.532v4.52a.328.328 0 0 1-.656 0v-4.52a1.877 1.877 0 0 0-1.869-1.877H5.521a1.877 1.877 0 0 0-1.87 1.877v12.931a1.877 1.877 0 0 0 1.87 1.878h2.448a.33.33 0 1 1 0 .659H5.52v-.004z" fill="#000"/>
    <path d="m11.179 19.518.657-2.602.69-.846 2.821-2.789.878-.908.814-.282h.909l.5.721.19.658v.752l-.69.972-1.723 1.723-2.1 1.85-1.786.595-1.16.156z" fill="url(#vp8bq0btza)"/>
    <path d="M11.04 19.995a.347.347 0 0 1-.243-.1.332.332 0 0 1-.08-.336l.902-2.99a.379.379 0 0 1 .084-.143l4.166-4.157a1.86 1.86 0 1 1 2.629 2.629l-4.153 4.148a.344.344 0 0 1-.151.089l-3.062.848a.374.374 0 0 1-.092.012zm1.28-3.22-.1.176-.545 1.915a.127.127 0 0 0 .03.12.129.129 0 0 0 .117.04l1.088-.236.912-.252.184-.11 3.087-3.078-.29-.307-1.08-1.075-.294-.3-3.108 3.106zm4.868-4.369a1.174 1.174 0 0 0-.835.344l-.445.495.424.37.948.945.311.294.429-.441a1.183 1.183 0 0 0 0-1.668 1.174 1.174 0 0 0-.832-.339zM6.173 7.081a.34.34 0 1 1 0-.68h7.822a.34.34 0 0 1 0 .68H6.173z" fill="#000"/>
    <defs>
        <linearGradient id="vp8bq0btza" x1="14.908" y1="12.091" x2="14.908" y2="19.518" gradientUnits="userSpaceOnUse">
            <stop stop-color="#5CBB67"/>
            <stop offset="1" stop-color="#1EB0C0"/>
        </linearGradient>
    </defs>
</svg>
