<svg width="22" height="22" viewBox="0 0 22 22" fill="none" xmlns="http://www.w3.org/2000/svg">
    <path d="M9.972 11.139a3.636 3.636 0 0 0 2.868-1.78 6.118 6.118 0 0 0 1.138-3.355 4.004 4.004 0 1 0-8.008 0 6.126 6.126 0 0 0 1.138 3.354 3.645 3.645 0 0 0 2.864 1.78zm0-8.484a3.354 3.354 0 0 1 3.351 3.35 5.515 5.515 0 0 1-1.018 2.976 3.055 3.055 0 0 1-2.333 1.504A3.048 3.048 0 0 1 7.639 8.98a5.53 5.53 0 0 1-1.018-2.976 3.357 3.357 0 0 1 3.351-3.35z" fill="#000"/>
    <path d="M15.208 12.087a7.032 7.032 0 0 0-2.011-1.576.66.66 0 0 0-.75.103 3.643 3.643 0 0 1-2.47 1.05 3.645 3.645 0 0 1-2.471-1.056.66.66 0 0 0-.75-.104A6.977 6.977 0 0 0 3 16.702v.01a.336.336 0 0 0 .103.243 10.202 10.202 0 0 0 6.87 2.644c.133 0 .27 0 .404-.009a.323.323 0 0 0 .312-.337.327.327 0 0 0-.337-.313 9.544 9.544 0 0 1-6.57-2.268.348.348 0 0 1-.124-.27 6.311 6.311 0 0 1 3.189-5.187.347.347 0 0 1 .39.045 4.214 4.214 0 0 0 2.735 1.068 4.214 4.214 0 0 0 2.735-1.068.344.344 0 0 1 .388-.045c.565.324 1.078.73 1.52 1.209 0 0 .181.276.433.217a.34.34 0 0 0 .16-.554z" fill="#000"/>
    <path d="m11.245 19.33.873-2.684 1.827-1.957 2.344-2.198.857-.63h1.083l.76.724.178.889-.501 1.05-4.122 4.285-3.297.873-.002-.352z" fill="url(#izwqzwcqya)"/>
    <path d="M11.233 20a.35.35 0 0 1-.335-.455l.944-3.104a.352.352 0 0 1 .089-.148l4.33-4.32A1.93 1.93 0 0 1 18.99 14.7l-4.325 4.313a.339.339 0 0 1-.156.089l-3.184.881a.317.317 0 0 1-.091.017zm1.331-3.348-.109.181-.695 2.302.765-.207 1.601-.444.193-.112 3.222-3.216-.317-.3-1.119-1.117-.304-.31-3.237 3.223zm5.06-4.539a1.22 1.22 0 0 0-.866.357l-.463.45.31.32 1.116 1.116.327.31.444-.463a1.226 1.226 0 0 0-.87-2.093l.001.003z" fill="#000"/>
    <defs>
        <linearGradient id="izwqzwcqya" x1="15.206" y1="11.861" x2="15.206" y2="19.682" gradientUnits="userSpaceOnUse">
            <stop stop-color="#5CBB67"/>
            <stop offset="1" stop-color="#1EB0C0"/>
        </linearGradient>
    </defs>
</svg>
