<svg width="23" height="23" viewBox="0 0 23 23" fill="none" xmlns="http://www.w3.org/2000/svg">
    <path d="m6.244 15.745-1-2.5c-5 5.5-1.5 7 0 6.5 11-5.5 14.5-14.5 14.5-15.5-.4-3.2-4.166-.667-6 1 .167.167.7.5 1.5.5 6-3-3.5 8.5-7.5 11-3.2 2-2.333.167-1.5-1z" fill="url(#syhmec93na)"/>
    <path fill-rule="evenodd" clip-rule="evenodd" d="M4.415 13.835zm-1.103 4.793zm-.009-.01zM14.673 5.26a2.286 2.286 0 0 0-.01-.006l.01.006zM5.872 17.125c.266-.091.523-.207.768-.344l.006-.003a4.6 4.6 0 0 0 .174-.104l-.673-.62a4.51 4.51 0 0 0-.104.176m9.225-7.814.086-.104-.086.104zm-4.51 8.773-.2.17 6.879-7.46.084.424a6.103 6.103 0 0 1-1.28 5.077 6.15 6.15 0 0 1-4.751 2.239l-.932-.28.2-.17zm.113.215zm8.638-11.058v.002a15.52 15.52 0 0 1-1.548 2.758.304.304 0 0 0-.042.313 6.573 6.573 0 0 1-1.445 6.63l-.004.004a6.491 6.491 0 0 1-3.636 2.058h-.004c-.444.093-.897.141-1.351.143a6.538 6.538 0 0 1-1.89-.285l-.028-.009h-.08a.323.323 0 0 0-.185.071 12.123 12.123 0 0 1-3.359 1.7 6.488 6.488 0 0 1-1.671.292h-.074a1.748 1.748 0 0 1-1.32-.578 1.807 1.807 0 0 1-.434-1.41 6.02 6.02 0 0 1 1.125-2.77l.005-.007c.306-.449.657-.877 1.004-1.299l.016-.02.304-.375c.02-.025.058-.072.075-.13.021-.073.001-.137-.004-.155v-.003l-.001-.001a6.168 6.168 0 0 1-.2-2.518l.001-.005A6.595 6.595 0 0 1 6.051 7.47a6.637 6.637 0 0 1 2.8-2.159l.005-.002a6.33 6.33 0 0 1 2.582-.552 6.977 6.977 0 0 1 1.772.236c.03.009.062.014.094.016h.011a.224.224 0 0 0 .109-.028.37.37 0 0 0 .08-.06c.839-.801 1.797-1.47 2.84-1.982h.002a4.89 4.89 0 0 1 1.619-.487l.024-.003.054-.02.01-.004h.456c.063.022.127.042.192.06l.003.001c.14.038.275.09.402.157a1.699 1.699 0 0 1 .916 1.645v.003a5.951 5.951 0 0 1-.512 2.056zM3.116 18.69l.041-.014-.035.015a1.146 1.146 0 0 0 1.157.712h.162l.01-.002a7.132 7.132 0 0 0 2.37-.662 16.785 16.785 0 0 0 4.25-2.912 52.748 52.748 0 0 0 4.314-4.406A22.012 22.012 0 0 0 18.4 7.23a7.881 7.881 0 0 0 1.002-2.907v-.008a1.176 1.176 0 0 0-.299-.905 1.094 1.094 0 0 0-.811-.359 1.05 1.05 0 0 0-.127 0l-.009.001a4.772 4.772 0 0 0-.966.207l-.009.003c-.896.34-1.73.826-2.466 1.438-.127.098-.25.2-.377.305l-.253.214.307.125c.06.024.117.052.172.085.11.076.24.118.375.121h.019c.163-.01.321-.06.462-.144a6.21 6.21 0 0 1 1.214-.448l.005-.002a.99.99 0 0 1 .262-.038h.002a.7.7 0 0 1 .56.266.87.87 0 0 1 .133.77l-.003.013c-.185.8-.55 1.549-1.068 2.189l-.003.004a60.684 60.684 0 0 1-5.681 6.419l-.003.002a17.487 17.487 0 0 1-3.494 2.74l-.055.03-.01.007a5.06 5.06 0 0 1-1.565.661 1.256 1.256 0 0 1-.23.026H5.48a.675.675 0 0 1-.515-.203.709.709 0 0 1-.15-.567v-.012c.019-.17.053-.337.103-.5a6.99 6.99 0 0 1 .777-1.528l.066-.097-.052-.104a35.072 35.072 0 0 0-.335-.653l-.145-.277-.438.569-.022.028c-.278.36-.568.737-.828 1.123a5.342 5.342 0 0 0-.817 1.819c-.114.34-.116.707-.008 1.049zm2.333-1.548-.099.347.346-.1a4.869 4.869 0 0 0 1.23-.546l.222-.139-1.044-.962-.127.206c-.231.372-.409.774-.528 1.194zM17.008 5.778l.047-.277-.277.046c-.365.06-.717.183-1.04.365l-.241.136 1.04.943.123-.222c.17-.309.288-.644.348-.991zm-9.41 10.498.116.093.122-.084c.672-.464 1.31-.976 1.909-1.53a43.953 43.953 0 0 0 3.848-4.02 159.03 159.03 0 0 0 1.816-2.175l.014-.017c.228-.277.458-.556.69-.834l.109-.132-.113-.129a6.131 6.131 0 0 0-4.492-2.079h-.005a6.518 6.518 0 0 0-1.363.15 5.879 5.879 0 0 0-3.136 1.622 5.839 5.839 0 0 0-1.634 3.12 5.999 5.999 0 0 0 .194 3.308 6.02 6.02 0 0 0 1.925 2.707z" fill="#000"/>
    <defs>
        <linearGradient id="syhmec93na" x1="11.197" y1="2.709" x2="11.197" y2="19.835" gradientUnits="userSpaceOnUse">
            <stop stop-color="#5CBB67"/>
            <stop offset="1" stop-color="#1EB0C0"/>
        </linearGradient>
    </defs>
</svg>
