<svg width="22" height="23" viewBox="0 0 22 23" fill="none" xmlns="http://www.w3.org/2000/svg">
    <path d="M10.998 2.846c2.659 0 4.502.251 5.776.686 1.262.431 1.946 1.034 2.328 1.741.392.723.5 1.61.496 2.669a34.73 34.73 0 0 1-.06 1.67 36.808 36.808 0 0 0-.058 1.835c0 2.32-1.433 4.47-3.265 6.062-.91.79-1.903 1.43-2.832 1.869-.936.443-1.776.669-2.384.669-.61 0-1.449-.226-2.385-.67a12.683 12.683 0 0 1-2.831-1.868c-1.832-1.592-3.265-3.742-3.265-6.063 0-.632-.029-1.248-.058-1.833l-.005-.093c-.027-.554-.053-1.079-.055-1.578-.004-1.06.104-1.946.495-2.669.383-.707 1.066-1.31 2.328-1.74C6.497 3.096 8.34 2.845 11 2.845z" fill="#fff" stroke="#000" stroke-width=".8"/>
    <path d="m14.202 7.5-4.49 5.002-1.918-2.133a.866.866 0 0 0-1.316 0 1.12 1.12 0 0 0 0 1.465l2.571 2.864a.865.865 0 0 0 1.315 0l5.15-5.729a1.122 1.122 0 0 0 0-1.464.87.87 0 0 0-1.316 0l.004-.004z" fill="url(#gmar1k6r1a)"/>
    <defs>
        <linearGradient id="gmar1k6r1a" x1="10.995" y1="7.204" x2="10.995" y2="15.001" gradientUnits="userSpaceOnUse">
            <stop stop-color="#5CBB67"/>
            <stop offset="1" stop-color="#1EB0C0"/>
        </linearGradient>
    </defs>
</svg>
