<svg width="22" height="22" viewBox="0 0 22 22" fill="none" xmlns="http://www.w3.org/2000/svg">
    <path d="M19.187 9.257c-.338-.05-.685-.099-1.032-.144a.101.101 0 0 1-.086-.072 7.306 7.306 0 0 0-.69-1.664.103.103 0 0 1 .009-.118c.213-.278.424-.557.627-.832a.944.944 0 0 0-.093-1.227l-1.137-1.138a.944.944 0 0 0-1.227-.093c-.275.203-.555.414-.832.628a.102.102 0 0 1-.118.01 7.3 7.3 0 0 0-1.665-.69.101.101 0 0 1-.073-.088c-.039-.342-.088-.69-.133-1.027A.944.944 0 0 0 11.793 2H10.19a.944.944 0 0 0-.934.802c-.05.338-.099.686-.144 1.033a.101.101 0 0 1-.073.086c-.581.16-1.14.392-1.664.69a.103.103 0 0 1-.118-.01 56.992 56.992 0 0 0-.832-.627.944.944 0 0 0-1.227.093L4.06 5.205a.944.944 0 0 0-.093 1.227c.204.276.415.555.628.831a.103.103 0 0 1 .01.118 7.302 7.302 0 0 0-.691 1.665.103.103 0 0 1-.086.072c-.347.045-.694.093-1.033.144a.944.944 0 0 0-.796.929v1.602a.944.944 0 0 0 .802.944c.339.05.686.099 1.033.144a.102.102 0 0 1 .086.073c.16.581.392 1.14.69 1.665a.102.102 0 0 1-.01.118c-.213.277-.424.556-.627.831a.944.944 0 0 0 .093 1.228l1.138 1.137a.944.944 0 0 0 1.227.093c.275-.203.554-.414.831-.628a.102.102 0 0 1 .118-.009c.525.298 1.084.53 1.665.69a.102.102 0 0 1 .073.086c.045.347.095.695.144 1.033a.944.944 0 0 0 .934.802h1.596a.944.944 0 0 0 .933-.802c.05-.339.1-.686.144-1.033a.102.102 0 0 1 .073-.087 7.305 7.305 0 0 0 1.665-.69.103.103 0 0 1 .118.01c.277.213.558.424.832.627a.944.944 0 0 0 1.227-.093l1.137-1.138a.944.944 0 0 0 .093-1.227 61.325 61.325 0 0 0-.627-.832.102.102 0 0 1-.01-.117c.298-.525.53-1.084.69-1.665a.102.102 0 0 1 .088-.073c.347-.045.694-.094 1.032-.144a.944.944 0 0 0 .803-.934v-1.611a.944.944 0 0 0-.804-.934zm-.038 2.536a.103.103 0 0 1-.086.103c-.332.05-.675.097-1.017.142a.944.944 0 0 0-.788.682 6.461 6.461 0 0 1-.61 1.474.944.944 0 0 0 .074 1.04c.21.273.418.55.619.82a.102.102 0 0 1-.012.134l-1.138 1.137a.103.103 0 0 1-.133.012c-.27-.2-.546-.408-.82-.618a.944.944 0 0 0-1.04-.075c-.465.264-.96.469-1.474.61a.944.944 0 0 0-.682.789 50.26 50.26 0 0 1-.143 1.017.103.103 0 0 1-.103.086h-1.605a.103.103 0 0 1-.103-.086c-.05-.333-.098-.675-.143-1.016a.944.944 0 0 0-.682-.788 6.457 6.457 0 0 1-1.473-.61.944.944 0 0 0-1.041.074c-.274.21-.55.419-.82.618a.103.103 0 0 1-.133-.012L4.658 16.19a.103.103 0 0 1-.012-.133c.201-.272.409-.547.619-.82a.944.944 0 0 0 .074-1.04 6.463 6.463 0 0 1-.609-1.471.943.943 0 0 0-.788-.682 51.502 51.502 0 0 1-1.017-.143.103.103 0 0 1-.085-.107V10.19a.103.103 0 0 1 .086-.103c.334-.05.675-.098 1.017-.143a.944.944 0 0 0 .788-.682 6.46 6.46 0 0 1 .61-1.473.944.944 0 0 0-.074-1.041c-.21-.273-.418-.549-.618-.82a.103.103 0 0 1 .012-.133l1.137-1.138a.103.103 0 0 1 .133-.012c.27.201.547.409.82.619a.944.944 0 0 0 1.041.074c.464-.263.96-.468 1.474-.61a.944.944 0 0 0 .682-.788c.044-.342.092-.684.142-1.017a.102.102 0 0 1 .1-.084h1.603a.103.103 0 0 1 .103.086c.05.333.097.675.142 1.017a.944.944 0 0 0 .682.788c.515.142 1.01.347 1.474.61a.944.944 0 0 0 1.04-.074c.274-.21.55-.419.82-.618a.102.102 0 0 1 .134.012l1.137 1.137a.103.103 0 0 1 .012.133c-.2.272-.408.547-.618.82a.944.944 0 0 0-.075 1.041c.264.464.469.96.61 1.474a.944.944 0 0 0 .789.682c.34.044.683.092 1.017.142a.103.103 0 0 1 .086.103v1.6h.003z" fill="#000"/>
    <path d="M10.994 7.09a3.904 3.904 0 1 0 0 7.808 3.904 3.904 0 0 0 0-7.808z" fill="url(#6aoqwe0nwa)"/>
    <path d="M10.994 7.09a3.904 3.904 0 1 0 0 7.808 3.904 3.904 0 0 0 0-7.808zm0 6.97a3.068 3.068 0 1 1 0-6.136 3.068 3.068 0 0 1 0 6.135z" fill="#000"/>
    <defs>
        <linearGradient id="6aoqwe0nwa" x1="10.994" y1="7.09" x2="10.994" y2="14.898" gradientUnits="userSpaceOnUse">
            <stop stop-color="#5CBB67"/>
            <stop offset="1" stop-color="#1EB0C0"/>
        </linearGradient>
    </defs>
</svg>
