<svg width="22" height="22" viewBox="0 0 22 22" fill="none" xmlns="http://www.w3.org/2000/svg">
    <path fill-rule="evenodd" clip-rule="evenodd" d="M17.674 17.316a5.278 5.278 0 1 0-1.778.865l1.96.858-.183-1.723z" fill="url(#jszv9x0lpa)"/>
    <path fill-rule="evenodd" clip-rule="evenodd" d="M4.326 11.903a5.278 5.278 0 1 1 1.778.865l-1.962.858.184-1.723z" fill="#fff"/>
    <path d="M14.918 11.127c-.611-.181-1.306.054-1.554.646l.476.328c.14-.227.28-.335.427-.396a.6.6 0 0 1 .58.08c.047.04.086.088.115.147a.495.495 0 0 1-.036.473c-.167.248-.413.336-.632.468-.182.106-.303.23-.361.372a1.258 1.258 0 0 0-.088.482h.602c0-.092.02-.17.058-.233a.65.65 0 0 1 .148-.17c.06-.049.126-.094.2-.134.337-.185.64-.372.752-.736a1.207 1.207 0 0 0-.06-.799.996.996 0 0 0-.627-.528zM13.856 13.99h.608v.756h-.608v-.755zM9.958 6.547a.948.948 0 0 0 0 1.895.948.948 0 0 0 0-1.895zm0 1.516a.569.569 0 1 1 0-1.138.569.569 0 0 1 0 1.138zM7.494 6.547a.948.948 0 0 0 0 1.895.948.948 0 0 0 0-1.895zm0 1.516a.569.569 0 1 1 .002-1.138.569.569 0 0 1-.002 1.138zM5.03 6.547a.948.948 0 0 0 0 1.895.948.948 0 0 0 0-1.895zm0 1.516a.569.569 0 1 1 .002-1.138.569.569 0 0 1-.001 1.138z" fill="#000"/>
    <path d="M14.505 7.495c-.518 0-1.028.072-1.52.214C13.106 4.564 10.576 2 7.495 2A5.5 5.5 0 0 0 2 7.495c0 1.756.824 3.317 2.102 4.322l-.206 1.718a.19.19 0 0 0 .268.194l1.958-.913c.947.244 1.951.23 2.893-.04a5.5 5.5 0 0 0 6.863 5.535l1.957.913a.19.19 0 0 0 .269-.194l-.206-1.718A5.485 5.485 0 0 0 20 12.989a5.501 5.501 0 0 0-5.495-5.494zm-8.352 4.938a.19.19 0 0 0-.13.01l-1.71.799.178-1.487a.19.19 0 0 0-.074-.174A5.078 5.078 0 0 1 2.38 7.495a5.121 5.121 0 0 1 5.115-5.116 5.122 5.122 0 0 1 5.116 5.116 5.122 5.122 0 0 1-6.457 4.938zm11.43 4.643a.19.19 0 0 0-.074.174l.178 1.487-1.711-.798a.188.188 0 0 0-.13-.012 5.12 5.12 0 0 1-6.445-5.279 5.509 5.509 0 0 0 3.553-4.535 5.122 5.122 0 0 1 6.666 4.876c0 1.62-.742 3.11-2.038 4.088z" fill="#000"/>
    <defs>
        <linearGradient id="jszv9x0lpa" x1="14.518" y1="7.806" x2="14.518" y2="19.039" gradientUnits="userSpaceOnUse">
            <stop stop-color="#5CBB67"/>
            <stop offset="1" stop-color="#1EB0C0"/>
        </linearGradient>
    </defs>
</svg>
