<svg width="22" height="22" viewBox="0 0 22 22" fill="none" xmlns="http://www.w3.org/2000/svg">
    <mask id="11tmf4aula" fill="#fff">
        <path d="M10.746 2.009h4.567a.905.905 0 0 1 1.032.884 4.03 4.03 0 0 0 2.427 3.29c.624.29.799.676.678 1.56a16.764 16.764 0 0 1-3.243 8.113 13.936 13.936 0 0 1-4.999 4.054.887.887 0 0 1-.842-.034 14.448 14.448 0 0 1-7.516-8.697 17.681 17.681 0 0 1-.844-3.75 1.093 1.093 0 0 1 .675-1.13 4.284 4.284 0 0 0 1.582-1.226c.48-.627.775-1.377.85-2.164a.873.873 0 0 1 .945-.842c1.563-.007 3.125 0 4.688 0V2.01m-4.694.962-.03.189a4.906 4.906 0 0 1-2.856 3.931.324.324 0 0 0-.203.386c.135 1.195.407 2.371.81 3.505a13.52 13.52 0 0 0 6.805 7.956.452.452 0 0 0 .476.007c4.627-2.454 6.808-6.498 7.5-11.514a.385.385 0 0 0-.275-.465 4.768 4.768 0 0 1-2.03-1.72 5.122 5.122 0 0 1-.83-2.279l-9.367.004z"/>
    </mask>
    <path d="M10.746 2.009h4.567a.905.905 0 0 1 1.032.884 4.03 4.03 0 0 0 2.427 3.29c.624.29.799.676.678 1.56a16.764 16.764 0 0 1-3.243 8.113 13.936 13.936 0 0 1-4.999 4.054.887.887 0 0 1-.842-.034 14.448 14.448 0 0 1-7.516-8.697 17.681 17.681 0 0 1-.844-3.75 1.093 1.093 0 0 1 .675-1.13 4.284 4.284 0 0 0 1.582-1.226c.48-.627.775-1.377.85-2.164a.873.873 0 0 1 .945-.842c1.563-.007 3.125 0 4.688 0V2.01m-4.694.962-.03.189a4.906 4.906 0 0 1-2.856 3.931.324.324 0 0 0-.203.386c.135 1.195.407 2.371.81 3.505a13.52 13.52 0 0 0 6.805 7.956.452.452 0 0 0 .476.007c4.627-2.454 6.808-6.498 7.5-11.514a.385.385 0 0 0-.275-.465 4.768 4.768 0 0 1-2.03-1.72 5.122 5.122 0 0 1-.83-2.279l-9.367.004z" fill="#000"/>
    <path d="M15.313 2.009v.101l.014-.002-.014-.099zm1.032.884-.1.001v.01l.1-.011zm2.427 3.29.042-.09-.003-.001-.04.092zm.678 1.56-.1-.013v.002l.1.012zm-3.243 8.113.079.061-.08-.06zm-4.999 4.054-.043-.09.043.09zm-.842-.034.05-.087-.007-.004-.043.09zM2.85 11.179l.096-.03v-.002l-.096.032zm-.844-3.75-.1.01h.001l.1-.01zm.675-1.13.037.093.004-.002-.041-.091zm1.582-1.226.078.063.001-.002-.08-.06zm.85-2.164.1.01v-.006l-.1-.004zm.945-.842-.008.1h.009v-.1zm4.688 0v.1h.1v-.1h-.1zm-4.694.906v-.1h-.086l-.013.084.099.016zm-.03.189-.099-.015v.004l.1.01zM3.167 7.093l.034.094.007-.003-.04-.09zm-.203.386.1-.012-.003-.013-.097.025zm.81 3.505.095-.03v-.004l-.095.034zm6.805 7.956.055-.085-.01-.004-.045.09zm.476.007-.047-.088-.004.002.051.086zm7.5-11.514-.097-.024-.002.01.1.014zm-.275-.465-.04.091.006.003.008.002.026-.096zm-2.03-1.72.083-.055-.083.055zm-.83-2.279.1-.011-.01-.09-.09.001v.1zm-4.673-.86h4.567v-.2h-4.567v.2zm4.581-.001a.804.804 0 0 1 .338.024l.057-.192a1.004 1.004 0 0 0-.423-.03l.028.198zm.338.024c.11.032.212.087.299.162l.13-.152a1.004 1.004 0 0 0-.373-.202l-.056.192zm.299.162a.804.804 0 0 1 .205.27l.181-.085a1.004 1.004 0 0 0-.256-.337l-.13.152zm.205.27a.804.804 0 0 1 .076.33l.2-.002a1.005 1.005 0 0 0-.095-.413l-.181.085zm.076.34c.076.732.347 1.431.784 2.024l.161-.118a3.93 3.93 0 0 1-.746-1.928l-.199.021zm.784 2.024a4.131 4.131 0 0 0 1.703 1.348l.079-.184a3.93 3.93 0 0 1-1.62-1.282l-.162.118zm1.7 1.347c.3.139.477.293.57.506.095.217.112.512.052.95l.198.026c.061-.447.05-.788-.067-1.057-.12-.273-.344-.456-.668-.607l-.084.182zm.622 1.457a16.664 16.664 0 0 1-3.224 8.064l.16.12a16.864 16.864 0 0 0 3.262-8.16l-.198-.024zm-3.224 8.063a13.838 13.838 0 0 1-4.962 4.025l.087.18a14.035 14.035 0 0 0 5.034-4.083l-.159-.122zm-4.963 4.025a.788.788 0 0 1-.377.08l-.009.2a.986.986 0 0 0 .474-.1l-.088-.18zm-.377.08a.786.786 0 0 1-.37-.11l-.102.172c.14.083.3.13.463.137l.009-.2zm-.378-.114a14.348 14.348 0 0 1-4.627-3.545l-.152.131a14.548 14.548 0 0 0 4.692 3.594l.087-.18zM5.782 16.24a14.347 14.347 0 0 1-2.836-5.092l-.19.06a14.548 14.548 0 0 0 2.874 5.163l.152-.13zm-2.837-5.094a17.582 17.582 0 0 1-.84-3.73l-.198.023a17.78 17.78 0 0 0 .849 3.771l.19-.064zm-.84-3.729a.993.993 0 0 1 .135-.616L2.07 6.7c-.133.222-.19.482-.162.74l.199-.022zm.135-.616a.993.993 0 0 1 .478-.41l-.075-.186c-.24.098-.442.271-.574.494l.171.102zm.482-.412A4.384 4.384 0 0 0 4.34 5.136l-.156-.125A4.184 4.184 0 0 1 2.64 6.208l.082.182zm1.62-1.256c.492-.642.794-1.41.87-2.215l-.2-.019c-.072.768-.36 1.5-.829 2.112l.16.122zm.87-2.221a.773.773 0 0 1 .073-.304l-.182-.084a.973.973 0 0 0-.09.381l.2.007zm.073-.304a.773.773 0 0 1 .186-.25l-.133-.149a.973.973 0 0 0-.235.315l.182.084zm.186-.25a.773.773 0 0 1 .27-.156l-.064-.19a.973.973 0 0 0-.34.197l.134.15zm.27-.156a.773.773 0 0 1 .309-.036l.017-.2a.973.973 0 0 0-.39.047l.063.19zm.318-.036c1.562-.007 3.124 0 4.687 0v-.2c-1.562 0-3.125-.007-4.688 0v.2zm4.787-.1V2.011h-.2V2.067h.2zm-4.893.89-.03.19.198.03.03-.188-.198-.032zm-.03.194a4.806 4.806 0 0 1-.889 2.296l.162.118c.511-.704.83-1.528.926-2.392l-.199-.022zm-.889 2.296a4.806 4.806 0 0 1-1.909 1.555l.082.182a5.006 5.006 0 0 0 1.99-1.62l-.163-.117zM3.132 7a.424.424 0 0 0-.23.201l.177.093a.224.224 0 0 1 .121-.106L3.132 7zm-.23.201a.424.424 0 0 0-.036.304l.194-.05a.224.224 0 0 1 .019-.16L2.902 7.2zm-.038.29c.136 1.203.41 2.387.815 3.527l.188-.067c-.4-1.126-.67-2.295-.804-3.483l-.2.023zm.814 3.524a13.619 13.619 0 0 0 2.62 4.699l.152-.13a13.419 13.419 0 0 1-2.582-4.63l-.19.061zm2.62 4.699a13.62 13.62 0 0 0 4.235 3.316l.09-.178a13.42 13.42 0 0 1-4.173-3.268l-.152.13zm4.226 3.311a.552.552 0 0 0 .29.088l.003-.2a.352.352 0 0 1-.185-.056l-.108.168zm.29.088a.551.551 0 0 0 .292-.079l-.103-.172a.351.351 0 0 1-.186.05l-.003.2zm.287-.076c4.662-2.474 6.856-6.55 7.552-11.59l-.198-.027c-.69 4.992-2.856 9.004-7.448 11.44l.094.177zm7.55-11.58a.486.486 0 0 0-.053-.363l-.172.102c.038.064.05.141.031.214l.194.048zm-.053-.363a.485.485 0 0 0-.293-.222l-.052.193c.073.02.134.066.173.13l.172-.101zm-.278-.217a4.669 4.669 0 0 1-1.988-1.683l-.167.11a4.87 4.87 0 0 0 2.073 1.756l.082-.183zm-1.988-1.683a5.022 5.022 0 0 1-.813-2.235l-.199.022c.092.831.382 1.628.846 2.324l.166-.111zm-.913-2.324-9.367.004v.2l9.368-.004v-.2z" fill="#fff" mask="url(#11tmf4aula)"/>
    <circle cx="10.5" cy="10.5" r="4.2" fill="url(#6f78k3paxb)" stroke="#000" stroke-width=".6"/>
    <path d="m9.847 11.303 2.1-3.001a1.71 1.71 0 0 1 .111-.152.384.384 0 0 1 .504-.092c.08.05.136.127.157.215a.333.333 0 0 1-.047.259 1.749 1.749 0 0 1-.105.156l-2.252 3.223c-.254.36-.45.38-.782.081-.45-.404-.898-.808-1.346-1.214-.222-.201-.245-.4-.075-.562.17-.161.358-.146.578.05.38.335.756.677 1.157 1.037z" fill="#000"/>
    <defs>
        <linearGradient id="6f78k3paxb" x1="10.5" y1="6" x2="10.5" y2="15" gradientUnits="userSpaceOnUse">
            <stop stop-color="#5CBB67"/>
            <stop offset="1" stop-color="#1EB0C0"/>
        </linearGradient>
    </defs>
</svg>
