<svg width="22" height="22" viewBox="0 0 22 22" fill="none" xmlns="http://www.w3.org/2000/svg">
    <path d="M5.895 13.156a.352.352 0 1 0-.428.557.352.352 0 0 0 .452-.054.354.354 0 0 0-.025-.5l.001-.003z" fill="#000"/>
    <path d="M11.106 15.058V13.81l.597-1.231 1.125-.528 1.055-.158.826.337.721.211.756-.316 1.037-.225 1.02.225.843.9.44 1.072v1.266l-.703 1.125-.862.966-1.318.985-.738.474-.475.3-1.055-.393-2.232-1.864-1.037-1.6v-.298z" fill="url(#xvsclx9p8a)"/>
    <path d="M17.145 11.5a2.5 2.5 0 0 0-.489.046c.846-1 1.341-2.25 1.41-3.558A4.902 4.902 0 0 0 13.264 3a4.647 4.647 0 0 0-3.231 1.3A4.654 4.654 0 0 0 6.803 3a4.905 4.905 0 0 0-4.802 4.988 7.164 7.164 0 0 0 2.422 4.731.35.35 0 0 0 .506-.484 6.525 6.525 0 0 1-2.225-4.247 4.2 4.2 0 0 1 4.1-4.285 3.972 3.972 0 0 1 2.97 1.337.35.35 0 0 0 .52 0 3.978 3.978 0 0 1 2.97-1.336 4.2 4.2 0 0 1 4.1 4.285 6.372 6.372 0 0 1-2.117 4.123 2.813 2.813 0 0 0-1.74-.615 2.912 2.912 0 0 0-2.854 2.96c.005.387.09.77.25 1.124-.388.247-.694.425-.873.528a27.991 27.991 0 0 1-3.1-2.1.351.351 0 1 0-.43.556 28.17 28.17 0 0 0 3.365 2.257.359.359 0 0 0 .338 0c.018-.01.418-.232 1.037-.619a12.487 12.487 0 0 0 3.919 3.36.36.36 0 0 0 .337 0C15.68 19.47 20 17.069 20 14.46a2.913 2.913 0 0 0-2.855-2.96zm.127 5.994c-.613.502-1.263.956-1.944 1.36-.68-.4-1.328-.85-1.937-1.35-.928-.77-2.035-1.923-2.035-3.038a2.21 2.21 0 0 1 2.152-2.256 2.093 2.093 0 0 1 1.557.7.35.35 0 0 0 .52 0 2.079 2.079 0 0 1 1.556-.7 2.208 2.208 0 0 1 2.152 2.256c.004 1.112-1.093 2.258-2.021 3.028z" fill="#000"/>
    <defs>
        <linearGradient id="xvsclx9p8a" x1="15.316" y1="11.893" x2="15.316" y2="19.212" gradientUnits="userSpaceOnUse">
            <stop stop-color="#5CBB67"/>
            <stop offset="1" stop-color="#1EB0C0"/>
        </linearGradient>
    </defs>
</svg>
