<svg width="24" height="24" viewBox="0 0 24 24" fill="none" xmlns="http://www.w3.org/2000/svg">
    <path d="M21.498 19.92h-2.51c.066-.202.1-.414.1-.63v-.232h2.173c-.259-2.002-1.871-4.365-3.773-4.554-.338-.417-.687-.757-1.008-.984h.636c2.757 0 4.896 3.157 4.896 5.872a.516.516 0 0 1-.514.528zm-6.8-7.1c-.378 0-.751-.056-1.11-.166.41-.234.78-.534 1.102-.891h.007c1.585 0 2.874-1.323 2.874-2.95 0-1.537-1.17-2.83-2.662-2.943-.29-.376-.632-.7-1.02-.966.267-.058.539-.086.808-.086 2.152 0 3.903 1.792 3.903 3.995 0 2.21-1.75 4.007-3.903 4.007z" fill="#707070"/>
    <path d="M10.025 11.893c1.835 0 3.327-1.535 3.327-3.421 0-1.88-1.492-3.409-3.327-3.409s-3.327 1.53-3.327 3.409c0 1.886 1.492 3.421 3.327 3.421zm0 1.013c-2.384 0-4.319-2-4.319-4.434 0-2.435 1.935-4.421 4.32-4.421 2.384 0 4.318 1.972 4.318 4.42 0 2.45-1.934 4.435-4.319 4.435zM17.11 18.937a4.768 4.768 0 0 0-1.29-2.858c-.843-.893-1.95-1.384-3.119-1.384H7.402c-2.263 0-4.195 1.902-4.407 4.242h14.114zm.44 1.012H2.553a.573.573 0 0 1-.57-.584c0-3.075 2.438-5.683 5.42-5.683H12.7c2.994 0 5.419 2.622 5.419 5.683a.573.573 0 0 1-.57.584z" fill="#707070"/>
</svg>
