<svg width="24" height="24" viewBox="0 0 24 24" fill="none" xmlns="http://www.w3.org/2000/svg">
    <path d="M18.127 18.702c1.048 0 1.9-.88 1.9-1.96V6.934c0-1.082-.852-1.962-1.9-1.962H4.874c-1.048 0-1.9.88-1.9 1.962v9.806c0 1.081.852 1.961 1.9 1.961h13.253zM4.874 6.935l6.632 4.413 6.621-4.413v1.961l-6.632 4.413-6.621-4.413v-1.96zm13.253 12.74H4.874C3.289 19.675 2 18.36 2 16.741V6.935C2 5.317 3.29 4 4.874 4h13.253C19.711 4 21 5.317 21 6.935v9.806c0 1.618-1.289 2.934-2.873 2.934z" fill="#757575"/>
    <path d="M18.127 18.702c1.05 0 1.9-.878 1.9-1.96V6.934c0-1.083-.85-1.962-1.9-1.962H4.874c-1.05 0-1.9.879-1.9 1.962v9.806c0 1.083.85 1.961 1.9 1.961h13.253zm0 .973H4.874C3.289 19.675 2 18.36 2 16.741V6.935C2 5.317 3.29 4 4.874 4h13.253C19.711 4 21 5.317 21 6.935v9.806c0 1.618-1.289 2.934-2.873 2.934z" fill="#757575"/>
</svg>
