<svg width="24" height="24" viewBox="0 0 24 24" fill="none" xmlns="http://www.w3.org/2000/svg">
    <g clip-path="url(#y4hpxxbn9a)" fill="#777">
        <path d="M15.656 3c.29.105.6.17.862.323.722.422 1.1 1.075 1.103 1.912.01 2.261.007 4.522.002 6.783a2.234 2.234 0 0 1-2.238 2.23c-2.683.004-5.366.002-8.048-.001-.13 0-.23.03-.332.116-.991.832-1.986 1.66-2.98 2.488-.287.239-.527.276-.767.119a.546.546 0 0 1-.256-.437c-.003-.04-.002-.082-.002-.123V5.287c0-1.094.692-1.973 1.75-2.232L4.968 3h10.688zM4.124 15.284c.066-.049.104-.074.139-.103.729-.608 1.46-1.213 2.185-1.825a.934.934 0 0 1 .64-.234c2.723.006 5.448.004 8.172.003.767 0 1.24-.471 1.24-1.236V5.368c0-.768-.47-1.243-1.234-1.243-3.304 0-6.609 0-9.913.002-.133 0-.27.014-.399.05-.524.14-.83.578-.83 1.18V15.284z"/>
        <path d="M21 20.578c-.038.065-.07.135-.114.195-.216.285-.556.303-.88.044-.665-.529-1.347-1.038-1.982-1.6-.403-.356-.816-.487-1.354-.48-2.296.029-4.593.014-6.89.012-1.086-.001-1.98-.684-2.211-1.742-.083-.376-.068-.78-.057-1.169.009-.278.298-.476.589-.462.275.014.51.244.52.521.008.176.001.352.003.527.008.72.484 1.198 1.206 1.2 1.225.004 2.449.001 3.673.001 1.318 0 2.637.005 3.955-.004a.994.994 0 0 1 .672.243c.566.463 1.14.915 1.733 1.388.005-.071.012-.12.012-.168V9.857c0-.723-.42-1.175-1.138-1.233-.342-.028-.565-.273-.548-.602.016-.3.266-.522.593-.522 1.06 0 2.003.801 2.183 1.852.006.04.023.078.035.116v11.11zM10.294 7.5c-1.118 0-2.237 0-3.357-.002a.56.56 0 0 1-.154-1.1.762.762 0 0 1 .208-.022h6.643c.369 0 .618.234.615.57-.004.327-.253.553-.615.553h-3.34zM9.188 9.75H6.99c-.369 0-.619-.233-.615-.57.004-.327.253-.553.614-.553h4.394c.369 0 .618.233.615.57-.004.326-.253.553-.614.553H9.188z"/>
    </g>
    <defs>
        <clipPath id="y4hpxxbn9a">
            <path fill="#fff" transform="translate(3 3)" d="M0 0h18v18H0z"/>
        </clipPath>
    </defs>
</svg>
