<svg width="18" height="19" viewBox="0 0 18 19" fill="none" xmlns="http://www.w3.org/2000/svg">
    <mask id="0045wmfo4a" style="mask-type:luminance" maskUnits="userSpaceOnUse" x="0" y="0" width="18" height="19">
        <path d="M7.492 13.727a6.126 6.126 0 1 1 0-12.252 6.126 6.126 0 0 1 0 12.252zm10.278 3.087-4.367-4.369a7.538 7.538 0 1 0-1.067 1.078l4.368 4.358a.751.751 0 0 0 1.066 0 .735.735 0 0 0 0-1.067z" fill="#fff"/>
    </mask>
    <g mask="url(#0045wmfo4a)">
        <mask id="gnlutfc0ab" style="mask-type:luminance" maskUnits="userSpaceOnUse" x="-140" y="-2084" width="1550" height="4790">
            <path d="M1409.9-2083.53H-139.685V2705.3H1409.9v-4788.83z" fill="#fff"/>
        </mask>
        <g mask="url(#gnlutfc0ab)">
            <path d="M23.668-5.723H-5.826v29.505h29.494V-5.723z" fill="#777"/>
        </g>
    </g>
</svg>
