<svg width="24" height="24" viewBox="0 0 24 24" fill="none" xmlns="http://www.w3.org/2000/svg">
    <path d="M11.5 21.568a.952.952 0 0 0 .305-.05h-.61c.096.033.199.05.305.05zm7.092-3.075-1.29-1.256a1 1 0 0 1-.302-.716v-5.808a5.7 5.7 0 0 0-1.213-3.546 5.51 5.51 0 0 0-3.022-1.965A1 1 0 0 1 12 4.23v-.693c0-.296-.224-.537-.5-.537s-.5.241-.5.538v.692a1 1 0 0 1-.764.972 5.51 5.51 0 0 0-3.023 1.965A5.7 5.7 0 0 0 6 10.713v5.808a1 1 0 0 1-.302.716l-1.29 1.256h14.184zM11.5 22.568c-1.105 0-2-.918-2-2.05h4c0 1.132-.895 2.05-2 2.05zm8.5-3.075H3v-1.025l2-1.947v-5.808c0-3.15 2.134-5.788 5-6.483v-.693C10 2.689 10.672 2 11.5 2s1.5.688 1.5 1.538v.692c2.866.695 5 3.332 5 6.483v5.808l2 1.947v1.025z" fill="#757575"/>
</svg>
